<svg width="1044" height="767" viewBox="0 0 1044 767" fill="none" xmlns="http://www.w3.org/2000/svg">
<path fill-rule="evenodd" clip-rule="evenodd" d="M861.51 766.506H1042.5V572.506L826.75 444.503L611 316.5V376L861.51 766.506Z" fill="#E0E0E0"></path>
<path fill-rule="evenodd" clip-rule="evenodd" d="M861.51 766.506H1042.5V572.506L826.75 444.503L611 316.5V376L861.51 766.506Z" fill="#E0E0E0"></path>
<path fill-rule="evenodd" clip-rule="evenodd" d="M799 418L620 312.5L861.51 241.359C878.217 236.883 904.86 224.306 896.5 182.506C889.5 147.506 846.5 150.506 846.5 150.506H718.5L625.5 0.505587H812.5C873.904 1.16112 1004.53 20.6508 1034.5 132.506C1065.05 246.506 1011.05 360.013 919 385.006L799 418Z" fill="#E0E0E0"></path>
<path fill-rule="evenodd" clip-rule="evenodd" d="M799 418L620 312.5L861.51 241.359C878.217 236.883 904.86 224.306 896.5 182.506C889.5 147.506 846.5 150.506 846.5 150.506H718.5L625.5 0.505587H812.5C873.904 1.16112 1004.53 20.6508 1034.5 132.506C1065.05 246.506 1011.05 360.013 919 385.006L799 418Z" fill="#E0E0E0"></path>
<path fill-rule="evenodd" clip-rule="evenodd" d="M151.5 766.506H0.5V0.505587H400.5C464.259 0.505612 587.5 11.5056 614.5 150.506L475.702 197.764C475.702 150.506 436.107 150.506 400.5 150.506H151.5V766.506Z" fill="#E0E0E0"></path>
<path fill-rule="evenodd" clip-rule="evenodd" d="M151.5 766.506H0.5V0.505587H400.5C464.259 0.505612 587.5 11.5056 614.5 150.506L475.702 197.764C475.702 150.506 436.107 150.506 400.5 150.506H151.5V766.506Z" fill="#E0E0E0"></path>
<path fill-rule="evenodd" clip-rule="evenodd" d="M201.5 416.506V302L614.5 159.5L379.5 416.506L497 591.506L614.5 766.506H432.5L317 591.506L201.5 416.506Z" fill="#E0E0E0"></path>
<path fill-rule="evenodd" clip-rule="evenodd" d="M201.5 416.506V302L614.5 159.5L379.5 416.506L497 591.506L614.5 766.506H432.5L317 591.506L201.5 416.506Z" fill="#E0E0E0"></path>
<path d="M812.5 0.505587H625.5L718.5 150.506H846.5C846.5 150.506 889.5 147.506 896.5 182.506C904.86 224.306 878.217 236.883 861.51 241.359L620 312.5L799 418L919 385.006C1011.05 360.013 1065.05 246.506 1034.5 132.506C1004.53 20.6508 873.904 1.16112 812.5 0.505587ZM812.5 0.505587C811.322 0.493016 813.641 0.505587 812.5 0.505587ZM861.51 766.506H1042.5V572.506L826.75 444.503L611 316.5V376L861.51 766.506ZM151.5 766.506H0.5V0.505587H400.5C464.259 0.505612 587.5 11.5056 614.5 150.506L475.702 197.764C475.702 150.506 436.107 150.506 400.5 150.506H151.5V766.506ZM201.5 416.506V302L614.5 159.5L379.5 416.506L497 591.506L614.5 766.506H432.5L317 591.506L201.5 416.506Z" stroke="#E0E0E0"></path>
</svg>